<svg width="294" height="201" viewBox="0 0 294 201" fill="none" xmlns="http://www.w3.org/2000/svg">
<g clip-path="url(#clip0_25_16)">
<path d="M269.889 129.291C254.274 100.26 218.071 72.2161 174.809 78.3674C147.082 82.3061 121.163 96.1215 93.6548 95.6283C69.2781 95.1952 46.3506 83.7656 27.1856 67.8176C9.79545 53.3557 0.0168381 31.6496 -17.7788 17.9874C-42.3749 -0.872974 -71.0393 -4.33849 -99.6971 4.95843C-100.129 5.09838 -100.568 5.27166 -101 5.42494V45.5916C-99.1586 44.7852 -97.3305 44.0921 -95.5357 43.559C-68.8921 35.6616 -42.2286 38.6073 -19.3609 54.6486C-2.80174 66.2581 6.28552 84.712 22.4525 97.0079C40.2813 110.563 61.5935 120.28 84.2618 120.647C109.848 121.06 133.953 109.324 159.732 105.972C199.97 100.747 233.633 124.579 248.152 149.264C256.893 164.112 262.078 182.346 264.817 201H294C291.54 175.362 280.831 149.644 269.889 129.297V129.291Z" fill="#992800"/>
<path d="M159.739 105.972C133.959 109.324 109.855 121.067 84.2684 120.647C61.6002 120.28 40.2813 110.563 22.4591 97.0079C6.28553 84.7119 -2.80173 66.2581 -19.3542 54.6486C-42.2153 38.6072 -68.8855 35.6615 -95.529 43.5589C-97.3239 44.0921 -99.152 44.7852 -100.993 45.5916V86.5313C-99.9297 86.1448 -98.8661 85.7849 -97.8224 85.4917C-73.0003 78.5473 -48.1649 81.1398 -26.8594 95.2351C-11.437 105.438 -2.97457 121.646 12.0889 132.456C28.6946 144.365 48.5509 152.903 69.6703 153.223C93.5019 153.589 115.958 143.272 139.975 140.327C177.454 135.735 208.811 156.681 222.346 178.361C226.62 185.212 229.957 192.896 232.556 201.007L264.83 201.007C262.092 182.353 256.906 164.119 248.165 149.271C233.64 124.592 199.983 100.753 159.745 105.978L159.739 105.972Z" fill="#D34A24"/>
<path d="M139.969 140.32C115.951 143.266 93.502 153.582 69.6637 153.216C48.5443 152.896 28.6879 144.359 12.0822 132.449C-2.98122 121.64 -11.4503 105.432 -26.866 95.2284C-48.1716 81.1331 -73.007 78.5473 -97.8291 85.485C-98.8728 85.7782 -99.9297 86.1315 -101 86.5247L-101 149.117C-94.0599 142.786 -86.1692 137.928 -78.9499 135.908C-58.3158 130.137 -37.6684 132.289 -19.9658 144.006C-7.14927 152.483 -0.109459 165.965 12.408 174.942C26.2084 184.845 42.7143 191.943 60.2706 192.21C80.0871 192.516 98.7469 183.939 118.71 181.493C142.688 178.554 163.634 188.191 177.149 201L232.543 201C229.944 192.889 226.607 185.205 222.332 178.354C208.804 156.668 177.441 135.722 139.962 140.32H139.969Z" fill="#FFAF00"/>
<path d="M118.71 178.108C98.7469 180.98 80.0871 191.043 60.2706 190.683C42.7143 190.37 26.2084 182.046 12.4079 170.43C-0.116119 159.894 -7.14928 144.086 -19.9658 134.135C-37.675 120.393 -58.3158 117.868 -78.9499 124.639C-86.1626 127.005 -94.0599 132.709 -101 140.14L-101 201.007L177.149 201.007C163.634 185.978 142.681 174.669 118.71 178.114V178.108Z" fill="#3C7F72"/>
</g>
<defs>
<clipPath id="clip0_25_16">
<rect width="395" height="201" fill="white" transform="translate(-101)"/>
</clipPath>
</defs>
</svg>
