<svg width="69" height="77" viewBox="0 0 69 77" fill="none" xmlns="http://www.w3.org/2000/svg">
<g clip-path="url(#clip0_2_198)">
<path d="M37.6776 33.0028C63.0802 -11.0009 5.92597 -11.0009 31.3286 33.0028C5.92597 -11.0009 -22.6545 38.5033 28.1508 38.5033C-22.6545 38.5033 5.91937 88.0009 31.3286 44.0038C5.92597 88.0009 63.0802 88.0009 37.6776 44.0038C63.0802 88.0009 91.654 38.5033 40.8554 38.5033C91.6607 38.5033 63.0802 -11.0009 37.6776 33.0028Z" fill="#FFAF00"/>
<path d="M39.6928 38.5033C39.6928 38.8463 39.6598 39.1826 39.5937 39.519C39.5276 39.8553 39.4285 40.1785 39.2964 40.4951C39.1643 40.8051 39.0057 41.1084 38.8207 41.392C38.6291 41.6756 38.4177 41.9394 38.1733 42.1769C37.9354 42.4209 37.6712 42.632 37.3871 42.8232C37.103 43.0145 36.8057 43.1728 36.4886 43.2981C36.1781 43.43 35.8477 43.5289 35.5174 43.5949C35.1805 43.6608 34.8435 43.6938 34.5 43.6938C34.1564 43.6938 33.8195 43.6608 33.4891 43.5949C33.1522 43.5289 32.8285 43.43 32.518 43.2981C32.2008 43.1662 31.9035 43.0079 31.6195 42.8232C31.3354 42.632 31.0711 42.4209 30.8333 42.1769C30.5954 41.9394 30.3774 41.6756 30.1858 41.392C29.9942 41.1084 29.8357 40.8051 29.7035 40.4951C29.5714 40.1785 29.4789 39.8553 29.4062 39.519C29.3402 39.1826 29.3071 38.8463 29.3071 38.5033C29.3071 38.1603 29.3402 37.824 29.4062 37.4876C29.4723 37.1513 29.5714 36.8281 29.7035 36.5115C29.8357 36.195 29.9942 35.8982 30.1858 35.6146C30.3774 35.331 30.5888 35.0672 30.8333 34.8297C31.0777 34.5923 31.3354 34.3747 31.6195 34.1834C31.9035 33.9921 32.2008 33.8338 32.518 33.7019C32.8285 33.57 33.1588 33.4777 33.4891 33.4051C33.8261 33.3392 34.163 33.3062 34.5 33.3062C34.8369 33.3062 35.1805 33.3392 35.5174 33.4051C35.8543 33.4711 36.1781 33.57 36.4886 33.7019C36.8057 33.8338 37.103 33.9921 37.3871 34.1834C37.6712 34.3747 37.9354 34.5857 38.1733 34.8297C38.4111 35.0738 38.6291 35.3376 38.8207 35.6146C39.0123 35.8982 39.1709 36.2015 39.2964 36.5115C39.4219 36.8215 39.5276 37.1513 39.5937 37.4876C39.6598 37.824 39.6928 38.1603 39.6928 38.5033Z" fill="#969200"/>
</g>
<defs>
<clipPath id="clip0_2_198">
<rect width="69" height="77" fill="white"/>
</clipPath>
</defs>
</svg>
