<svg width="395" height="201" viewBox="0 0 395 201" fill="none" xmlns="http://www.w3.org/2000/svg">
<g clip-path="url(#clip0_25_9)">
<path d="M24.1108 71.7095C39.726 100.74 75.9288 128.784 119.191 122.633C146.918 118.694 172.837 104.878 200.345 105.372C224.722 105.805 247.649 117.234 266.814 133.182C284.205 147.644 293.983 169.35 311.779 183.013C336.375 201.873 365.039 205.339 393.697 196.042C394.129 195.902 394.568 195.728 395 195.575L395 155.408C393.159 156.215 391.331 156.908 389.536 157.441C362.892 165.338 336.229 162.393 313.361 146.351C296.802 134.742 287.714 116.288 271.548 103.992C253.719 90.4366 232.407 80.7198 209.738 80.3533C184.152 79.9401 160.047 91.6762 134.268 95.0284C94.0302 100.253 60.3668 76.4213 45.8485 51.7361C37.1069 36.8877 31.9217 18.6538 29.1829 -4.72395e-05L-1.29456e-05 -4.97908e-05C2.45958 25.6381 13.1689 51.3562 24.1108 71.7028L24.1108 71.7095Z" fill="#992800"/>
<path d="M134.261 95.0285C160.041 91.6762 184.145 79.9335 209.732 80.3533C232.4 80.7199 253.719 90.4367 271.541 103.992C287.714 116.288 296.802 134.742 313.354 146.351C336.215 162.393 362.885 165.338 389.529 157.441C391.324 156.908 393.152 156.215 394.993 155.408L394.993 114.469C393.93 114.855 392.866 115.215 391.822 115.508C367 122.453 342.165 119.86 320.859 105.765C305.437 95.5616 296.975 79.3537 281.911 68.5439C265.305 56.6345 245.449 48.0974 224.33 47.7775C200.498 47.4109 178.042 57.7275 154.025 60.6732C116.546 65.265 85.1889 44.3186 71.6544 22.6391C67.38 15.7881 64.0429 8.10397 61.4437 -0.00666673L29.1696 -0.00666955C31.9084 18.6471 37.0935 36.8811 45.8351 51.7295C60.3601 76.408 94.0169 100.247 134.255 95.0218L134.261 95.0285Z" fill="#D34A24"/>
<path d="M154.031 60.6799C178.049 57.7342 200.498 47.4176 224.336 47.7842C245.456 48.1041 265.312 56.6412 281.918 68.5506C296.981 79.3604 305.45 95.5683 320.866 105.772C342.172 119.867 367.007 122.453 391.829 115.515C392.873 115.222 393.93 114.869 395 114.475L395 51.8828C388.06 58.214 380.169 63.0724 372.95 65.0918C352.316 70.8632 331.668 68.7106 313.966 56.9944C301.149 48.5173 294.109 35.0351 281.592 26.058C267.792 16.1547 251.286 9.05702 233.729 8.79044C213.913 8.48387 195.253 17.061 175.29 19.5069C151.313 22.4459 130.366 12.8091 116.851 6.20105e-06L61.457 1.35832e-06C64.0562 8.11064 67.3933 15.7948 71.6677 22.6458C85.1955 44.332 116.559 65.2783 154.038 60.6799L154.031 60.6799Z" fill="#FFAF00"/>
<path d="M175.29 22.8924C195.253 20.02 213.913 9.95671 233.729 10.3166C251.286 10.6298 267.792 18.9537 281.592 30.5699C294.116 41.1064 301.149 56.9145 313.966 66.8645C331.675 80.6066 352.316 83.1324 372.95 76.3613C380.163 73.9955 388.06 68.2907 395 60.8598L395 -0.00662994L116.851 -0.00665426C130.366 15.0217 151.319 26.3313 175.29 22.8857L175.29 22.8924Z" fill="#3C7F72"/>
</g>
<defs>
<clipPath id="clip0_25_9">
<rect width="395" height="201" fill="white" transform="translate(395 201) rotate(-180)"/>
</clipPath>
</defs>
</svg>
